<?xml version="1.0" encoding="UTF-8"?>
<svg width="20px" height="35px" viewBox="0 0 20 35" version="1.1" xmlns="http://www.w3.org/2000/svg" xmlns:xlink="http://www.w3.org/1999/xlink">
    <!-- Generator: Sketch 40.3 (33839) - http://www.bohemiancoding.com/sketch -->
    <title>btn-arrow-right2</title>
    <desc>Created with Sketch.</desc>
    <defs>
        <polygon id="path-1" points="19.7707692 34.6416923 19.7707692 -0.000136711129 0.000246551274 -0.000136711129 0.000246551274 34.6416923"></polygon>
    </defs>
    <g id="Design" stroke="none" stroke-width="1" fill="none" fill-rule="evenodd">
        <g id="View/Desktop" transform="translate(-974.000000, -675.000000)">
            <g id="btn-arrow-right2" transform="translate(974.000000, 675.000000)">
                <mask id="mask-2" fill="white">
                    <use xlink:href="#path-1"></use>
                </mask>
                <g id="Clip-2"></g>
                <path d="M19.7715385,17.3247692 C19.7715385,17.2786154 19.7607692,17.2355385 19.7515385,17.1909231 C19.7423077,17.1447692 19.7361538,17.1001538 19.7176923,17.0555385 C19.7007692,17.0124615 19.6730769,16.9755385 19.6453846,16.9355385 C19.6253846,16.9047692 19.6161538,16.8693846 19.59,16.8416923 C19.5515385,16.8109231 1.20384615,0.187846154 1.20384615,0.187846154 L0.237692308,1.25553846 L17.9838462,17.3247692 L0.237692308,33.3878462 L1.20384615,34.4555385 L19.5392308,17.8570769 C19.6146154,17.7786154 19.6253846,17.7447692 19.6453846,17.7155385 C19.6715385,17.674 19.7007692,17.6370769 19.7176923,17.5924615 C19.7361538,17.5478462 19.7423077,17.5047692 19.7515385,17.4586154 C19.7607692,17.414 19.7715385,17.3709231 19.7715385,17.3247692 Z" id="Fill-1" fill="#111111" mask="url(#mask-2)"></path>
            </g>
        </g>
    </g>
</svg>