<?xml version="1.0" encoding="UTF-8"?>
<svg width="70px" height="60px" viewBox="0 0 70 60" version="1.1" xmlns="http://www.w3.org/2000/svg" xmlns:xlink="http://www.w3.org/1999/xlink">
    <!-- Generator: Sketch 40.3 (33839) - http://www.bohemiancoding.com/sketch -->
    <title>Shape</title>
    <desc>Created with Sketch.</desc>
    <defs></defs>
    <g id="Symbols" stroke="none" stroke-width="1" fill="none" fill-rule="evenodd">
        <g id="HEADER/desktop" transform="translate(-115.000000, 0.000000)" fill="#B31F37">
            <g id="HEADER">
                <path d="M178.020353,19.6377424 C178.020353,19.6377424 176.628252,26.1960878 167.564123,32.4141418 C167.564123,32.4141418 168.70874,33.0019181 169.853357,32.4141418 C169.853357,32.4141418 166.450442,35.2292807 160.448937,37.8278704 C154.138076,40.735816 158.623737,44.1387311 160.820164,45.7473819 C163.016591,47.3560327 168.832483,50.7589478 172.606625,50.4186563 C172.606625,50.4186563 171.895106,51.0992393 170.997974,51.1920461 C170.997974,51.1920461 172.915981,52.9553748 174.679309,53.0791172 C174.679309,53.0791172 172.699432,53.9453137 171.431072,53.6050222 C171.431072,53.6050222 173.008787,55.368351 174.215276,55.3992866 C174.215276,55.3992866 172.513818,56.2964187 171.431072,56.1726763 C171.431072,56.1726763 172.297269,58.7712661 173.441886,59.0187508 C173.441886,59.0187508 171.926042,60.9058219 166.60512,56.048934 C164.841791,54.4402832 160.201452,54.9043171 160.201452,54.9043171 C160.201452,54.9043171 150.054578,55.1208662 145.878273,53.2956663 C141.701969,51.501402 135.452979,45.0358633 132.173806,41.9113685 C128.894633,38.7868737 127.007562,36.4048332 125.027684,35.7551857 C123.047807,35.1055383 120.139861,35.662379 117.046302,31.0839114 L115.221102,29.8774233 L118.25279,29.5371318 C118.25279,29.5371318 122.955,25.9176675 126.079495,29.5371318 C129.203989,33.156596 130.317671,34.3012129 133.225616,33.4350163 C133.225616,33.4350163 131.616966,29.9392945 125.83201,24.7111794 C121.90319,21.5557491 122.521902,20.4730034 122.18161,17.843478 C122.18161,17.843478 120.789508,11.1923258 116.70601,5.96421077 C112.622512,0.73609575 116.984431,2.46848889 118.283725,3.82965494 C119.58302,5.19082098 144.022138,21.6176203 146.125758,34.7961824 C146.125758,34.7961824 152.560361,32.8472401 155.592049,23.906854 C155.592049,23.906854 157.169764,21.5557491 160.170517,19.4830644 C162.490686,17.8744136 181.361397,5.22175657 182.165723,0.457675424 C182.165723,0.457675424 185.630509,-1.83155837 182.598821,3.82965494 C182.691628,3.86059053 188.909682,2.96345836 180.959235,13.5434308 C180.959235,13.5434308 182.846306,14.7808545 178.020353,19.6377424 Z" id="Shape"></path>
            </g>
        </g>
    </g>
</svg>