<svg width="20" height="35" viewBox="0 0 20 35" xmlns="http://www.w3.org/2000/svg" xmlns:xlink="http://www.w3.org/1999/xlink"><title>btn-arrow-left2</title><defs><path id="a" d="M19.77 34.642V0H0v34.642z"/></defs><g fill="none" fill-rule="evenodd"><mask id="b" fill="#fff"><use xlink:href="#a"/></mask><path d="M19.534 17.323c0-.046-.01-.09-.02-.134-.01-.046-.015-.09-.034-.135-.017-.043-.044-.08-.072-.12-.02-.031-.03-.066-.055-.094C19.314 16.81.966.186.966.186L0 1.254l17.746 16.069L0 33.386l.966 1.068 18.336-16.599c.075-.078.086-.112.106-.141.026-.042.055-.079.072-.123.019-.045.025-.088.034-.134.01-.045.02-.088.02-.134z" fill="#111" mask="url(#b)" transform="rotate(-180 9.767 17.32)"/></g></svg>