<?xml version="1.0" encoding="UTF-8"?>
<svg width="20px" height="35px" viewBox="0 0 20 35" version="1.1" xmlns="http://www.w3.org/2000/svg" xmlns:xlink="http://www.w3.org/1999/xlink">
    <!-- Generator: Sketch 40.3 (33839) - http://www.bohemiancoding.com/sketch -->
    <title>btn-arrow-left2</title>
    <desc>Created with Sketch.</desc>
    <defs>
        <polygon id="path-1" points="19.7707692 34.6416923 19.7707692 -0.000136711129 0.000246551274 -0.000136711129 0.000246551274 34.6416923"></polygon>
    </defs>
    <g id="Design" stroke="none" stroke-width="1" fill="none" fill-rule="evenodd">
        <g id="View/Desktop" transform="translate(-940.000000, -675.000000)">
            <g id="btn-arrow-left2" transform="translate(940.000000, 675.000000)">
                <mask id="mask-2" fill="white">
                    <use xlink:href="#path-1"></use>
                </mask>
                <g id="Clip-2" transform="translate(9.885508, 17.320778) rotate(-180.000000) translate(-9.885508, -17.320778) "></g>
                <path d="M19.5340927,17.3229402 C19.5340927,17.2767864 19.5233235,17.2337094 19.5140927,17.1890941 C19.5048619,17.1429402 19.4987081,17.0983248 19.4802466,17.0537094 C19.4633235,17.0106325 19.4356312,16.9737094 19.4079389,16.9337094 C19.3879389,16.9029402 19.3787081,16.8675556 19.3525542,16.8398633 C19.3140927,16.8090941 0.966400397,0.186017135 0.966400397,0.186017135 L0.000246551274,1.25370944 L17.7464004,17.3229402 L0.000246551274,33.3860171 L0.966400397,34.4537094 L19.301785,17.8552479 C19.3771696,17.7767864 19.3879389,17.7429402 19.4079389,17.7137094 C19.4340927,17.672171 19.4633235,17.6352479 19.4802466,17.5906325 C19.4987081,17.5460171 19.5048619,17.5029402 19.5140927,17.4567864 C19.5233235,17.412171 19.5340927,17.3690941 19.5340927,17.3229402 Z" id="Fill-1" fill="#999999" mask="url(#mask-2)" transform="translate(9.767170, 17.319863) rotate(-180.000000) translate(-9.767170, -17.319863) "></path>
            </g>
        </g>
    </g>
</svg>