<svg xmlns="http://www.w3.org/2000/svg" xmlns:xlink="http://www.w3.org/1999/xlink" viewBox="694.477 42 82.511 67.802"><defs><style>.a{fill-rule:evenodd;fill:url(#a);}</style><linearGradient id="a" x1="0.5" x2="0.5" y2="1" gradientUnits="objectBoundingBox"><stop offset="0" stop-color="#eb6635"/><stop offset="1" stop-color="#b31e36"/></linearGradient></defs><g transform="translate(16)"><path class="a" d="M77.806,15.073s2.023,1.8-3.675,7.351c0,0-1.835,7.593-12.5,14.7a3.919,3.919,0,0,0,2.94,0,61.245,61.245,0,0,1-11.026,5.88c-7.431,3.319-2.585,6.97,0,8.821,2.555,1.821,9.531,6.262,13.966,5.88a2.015,2.015,0,0,1-1.47.735s2.325,2.029,4.41,2.205c0,0-2.942,1.117-4.41.735a9.735,9.735,0,0,0,3.675,1.47s-2.412,1.617-3.675,1.47c0,0,1.589,2.676,2.94,2.94,0,0-1.8,1.876-8.086-3.675-2.085-1.821-8.086-.735-8.086-.735s-12-.149-16.906-2.205S23.584,51,19.736,47.415C15.889,43.862,14,41.563,11.651,40.8s-5.943.112-9.556-5.145L-.11,34.184l3.675-.735s5.855-4.112,9.556,0,4.649,5.38,8.086,4.41c0,0-2.036-3.594-8.821-9.556-4.582-3.583-3.293-5.06-3.675-8.086A38.181,38.181,0,0,0,2.1,6.987c-4.787-5.962-.028-4.5,1.47-2.94C5.093,5.633,34.146,24.263,36.643,39.33c0,0,7.472-2.275,11.026-12.5a23.7,23.7,0,0,1,5.145-4.41C55.575,20.6,78.365,5.805,79.276.372c0,0,3.554-2.816,0,3.675C79.276,4.047,87.2,3,77.806,15.073Z" transform="translate(678.587 42.236)"/></g></svg>