<svg width="20" height="35" viewBox="0 0 20 35" xmlns="http://www.w3.org/2000/svg" xmlns:xlink="http://www.w3.org/1999/xlink"><title>btn-arrow-right2</title><defs><path id="a" d="M19.77 34.642V0H0v34.642z"/></defs><g fill="none" fill-rule="evenodd"><mask id="b" fill="#fff"><use xlink:href="#a"/></mask><path d="M19.772 17.325c0-.046-.011-.09-.02-.134-.01-.046-.016-.09-.034-.135-.017-.044-.045-.08-.073-.12-.02-.031-.029-.067-.055-.094C19.552 16.81 1.204.188 1.204.188L.238 1.256l17.746 16.069L.238 33.388l.966 1.068 18.335-16.599c.076-.078.086-.112.106-.141.027-.042.056-.079.073-.124.018-.044.024-.087.034-.133.009-.045.02-.088.02-.134z" fill="#111" mask="url(#b)"/></g></svg>