<svg width="70" height="60" viewBox="0 0 70 60" xmlns="http://www.w3.org/2000/svg"><title>Shape</title><path d="M63.02 19.638s-1.392 6.558-10.456 12.776c0 0 1.145.588 2.29 0 0 0-3.404 2.815-9.405 5.414-6.31 2.908-1.825 6.31.371 7.92 2.197 1.608 8.012 5.01 11.787 4.67 0 0-.712.681-1.609.774 0 0 1.918 1.763 3.681 1.887 0 0-1.98.866-3.248.526 0 0 1.578 1.763 2.784 1.794 0 0-1.701.897-2.784.774 0 0 .866 2.598 2.01 2.846 0 0-1.515 1.887-6.836-2.97-1.763-1.609-6.404-1.145-6.404-1.145s-10.146.217-14.323-1.608c-4.176-1.795-10.425-8.26-13.704-11.385-3.28-3.124-5.166-5.506-7.146-6.156-1.98-.65-4.888-.093-7.982-4.671L.221 29.877l3.032-.34s4.702-3.62 7.826 0c3.125 3.62 4.239 4.764 7.147 3.898 0 0-1.609-3.496-7.394-8.724-3.929-3.155-3.31-4.238-3.65-6.868 0 0-1.392-6.65-5.476-11.879-4.083-5.228.278-3.496 1.578-2.134 1.299 1.36 25.738 17.788 27.842 30.966 0 0 6.434-1.949 9.466-10.89 0 0 1.578-2.35 4.579-4.423C47.49 17.874 66.36 5.222 67.166.458c0 0 3.465-2.29.433 3.372.093.03 6.31-.867-1.64 9.713 0 0 1.887 1.238-2.939 6.095z" fill="#B31F37" fill-rule="evenodd"/></svg>